<?xml version="1.0" standalone="no"?>
<!DOCTYPE svg PUBLIC "-//W3C//DTD SVG 20010904//EN"
 "http://www.w3.org/TR/2001/REC-SVG-20010904/DTD/svg10.dtd">
<svg version="1.0" xmlns="http://www.w3.org/2000/svg"
 width="394.000000pt" height="394.000000pt" viewBox="0 0 394.000000 394.000000"
 preserveAspectRatio="xMidYMid meet">
<metadata>
Created by potrace 1.11, written by Peter Selinger 2001-2013
</metadata>
<g transform="translate(0.000000,394.000000) scale(0.100000,-0.100000)"
fill="#000000" stroke="none">
<path d="M1781 3839 c-287 -30 -601 -141 -836 -296 -730 -481 -1036 -1381
-750 -2203 207 -594 717 -1057 1327 -1205 639 -155 1304 28 1769 487 516 511
695 1250 468 1933 -115 347 -327 650 -614 882 -375 302 -883 452 -1364 402z
m-30 -156 c0 -5 15 -107 33 -228 23 -155 29 -222 22 -228 -6 -4 -27 -6 -46 -5
l-34 3 -33 220 c-18 121 -32 223 -33 227 0 4 15 9 33 11 17 2 38 5 45 5 6 1
12 -1 13 -5z m289 -8 c16 -8 34 -24 40 -34 6 -11 10 -89 10 -180 l0 -161 -29
-32 c-27 -30 -32 -32 -120 -36 l-91 -4 0 231 0 231 80 0 c53 0 91 -5 110 -15z
m262 -11 c69 -13 88 -20 84 -31 -4 -8 -6 -23 -6 -32 0 -16 -5 -17 -42 -10 -24
4 -46 8 -50 9 -10 0 -31 -108 -23 -120 3 -5 17 -10 31 -10 22 0 25 -4 22 -32
-3 -31 -5 -33 -39 -30 l-37 3 -6 -48 c-4 -26 -10 -58 -13 -70 -4 -19 0 -22 41
-28 42 -7 46 -10 46 -36 0 -15 -3 -30 -7 -32 -14 -8 -183 26 -183 37 0 6 18
106 40 221 22 116 40 213 40 218 0 9 -2 10 102 -9z m-752 -39 c24 -12 60 -59
60 -78 0 -6 -80 -41 -83 -36 -2 2 -11 16 -20 31 -17 28 -41 29 -51 2 -12 -31
18 -63 96 -105 96 -52 128 -92 128 -159 -1 -68 -45 -110 -115 -110 -49 1 -80
17 -106 56 -26 40 -24 48 17 67 36 18 54 15 54 -7 0 -21 38 -49 56 -42 12 5
14 13 9 34 -10 40 -29 56 -110 97 -83 41 -115 79 -115 139 0 96 96 155 180
111z m1130 -80 c36 -18 36 -28 10 -124 -12 -40 -19 -76 -16 -78 2 -2 30 27 61
66 32 39 61 71 67 71 5 0 23 -7 39 -16 36 -18 48 1 -101 -164 -61 -68 -105
-127 -124 -167 l-29 -62 -39 20 -38 19 33 68 c24 47 42 108 61 207 30 153 35
175 42 175 3 0 18 -7 34 -15z m-1317 -212 c53 -101 97 -185 97 -187 0 -5 -65
-46 -73 -46 -3 0 -27 40 -52 90 l-47 90 -30 -16 c-16 -8 -28 -18 -26 -22 2 -4
22 -44 46 -89 23 -46 42 -84 42 -86 0 -10 -72 -39 -79 -31 -14 14 -214 394
-210 398 7 6 68 36 73 36 2 0 23 -35 46 -77 24 -43 44 -79 45 -81 5 -6 55 22
55 30 0 5 -18 42 -40 82 -22 40 -40 76 -40 79 0 4 17 15 37 26 45 23 29 44
156 -196z m-389 23 c15 -24 14 -26 -9 -44 l-25 -20 120 -151 c66 -83 120 -154
120 -159 0 -8 -54 -52 -64 -52 -2 0 -57 66 -122 148 -64 81 -119 149 -120 151
-2 2 -15 -4 -30 -13 -24 -17 -27 -17 -45 0 -11 10 -18 23 -17 30 4 15 149 133
164 134 7 0 19 -11 28 -24z m2074 -12 c47 -36 66 -84 52 -132 -10 -40 -115
-185 -173 -241 -69 -66 -167 -46 -210 41 -15 30 -16 44 -7 76 12 47 146 227
192 260 45 31 101 29 146 -4z m217 -206 c21 -25 24 -33 13 -43 -7 -7 -69 -61
-138 -120 -137 -117 -152 -137 -128 -162 27 -26 55 -9 197 113 l134 115 28
-27 c16 -15 29 -33 28 -38 0 -10 -129 -124 -237 -209 -87 -69 -162 -67 -213 4
-47 66 -34 122 43 196 60 57 232 203 240 203 3 0 18 -14 33 -32z m-2492 8 c51
-22 90 -69 92 -113 l2 -38 101 -45 c56 -25 102 -47 102 -50 0 -3 -12 -20 -27
-38 l-28 -33 -95 51 c-52 27 -99 50 -105 50 -5 -1 27 -35 73 -78 l83 -77 -33
-32 -33 -31 -167 150 c-93 82 -168 155 -168 162 0 17 100 113 130 125 34 13
36 13 73 -3z m1467 -64 c310 -83 551 -258 711 -516 167 -272 213 -613 123
-924 -123 -424 -493 -750 -922 -812 -130 -19 -355 -8 -474 23 -431 113 -762
475 -839 917 -17 96 -17 294 0 390 74 421 388 778 792 901 131 40 205 49 374
45 119 -3 179 -9 235 -24z m1266 -278 c31 -52 54 -96 52 -98 -53 -36 -54 -36
-72 -5 l-18 30 -31 -20 c-104 -63 -310 -181 -311 -179 -1 2 -12 20 -23 40
l-21 37 166 97 c92 53 168 98 170 99 2 2 -3 16 -11 32 -14 27 -14 29 11 45 15
10 28 18 29 18 1 0 28 -43 59 -96z m-2911 67 c70 -32 222 -130 237 -153 27
-42 30 -76 9 -123 -24 -55 -62 -80 -117 -79 -33 1 -68 15 -154 65 -134 77
-170 113 -170 171 0 24 9 55 21 74 39 63 100 79 174 45z m3015 -265 c22 -60
30 -53 -142 -119 -15 -5 -16 -11 -7 -37 6 -16 12 -30 12 -30 1 0 38 14 82 30
44 16 85 30 92 30 15 0 38 -69 27 -80 -5 -5 -94 -40 -199 -79 -104 -38 -198
-72 -207 -76 -13 -5 -21 2 -32 30 -9 21 -16 41 -16 45 0 4 42 22 93 40 50 19
93 34 95 35 1 1 -3 16 -9 33 l-11 31 -95 -34 c-52 -19 -97 -35 -99 -35 -6 0
-27 80 -23 85 7 7 402 153 417 154 7 1 17 -10 22 -23z m-3067 -87 c212 -73
222 -79 197 -119 -7 -12 -39 -16 -142 -20 l-133 -5 115 -41 c111 -40 115 -43
113 -70 -1 -15 -6 -31 -12 -37 -9 -9 -416 124 -434 142 -4 4 -3 19 3 33 11 23
19 26 87 32 42 3 99 6 127 6 64 0 52 9 -71 51 -51 17 -93 36 -93 42 0 27 13
57 24 57 6 0 104 -32 219 -71z m22 -563 c33 -5 62 -10 64 -13 3 -2 -16 -25
-41 -51 l-46 -47 10 -58 c6 -32 8 -61 5 -64 -3 -3 -30 8 -59 25 l-53 30 -55
-28 c-30 -16 -58 -29 -61 -30 -3 0 -1 29 5 65 l9 66 -47 48 -48 48 66 8 67 7
30 61 31 61 32 -60 31 -59 60 -9z m3050 0 c33 -5 62 -10 64 -13 3 -2 -16 -25
-41 -51 l-46 -47 10 -58 c6 -32 8 -61 5 -64 -3 -3 -30 8 -59 25 l-53 30 -55
-28 c-30 -16 -58 -29 -61 -30 -3 0 -1 29 5 65 l9 66 -47 48 -48 48 66 8 67 7
30 61 31 61 32 -60 31 -59 60 -9z m-2841 -497 c32 -25 56 -69 56 -104 0 -48
-42 -105 -78 -105 -4 0 -18 18 -30 39 -22 39 -22 40 -2 46 29 9 43 40 25 55
-33 27 -74 -9 -100 -90 -35 -111 -84 -160 -160 -160 -47 0 -79 19 -100 60 -23
45 -19 94 11 129 45 54 60 56 88 14 l25 -37 -22 -14 c-48 -32 -57 -72 -15 -72
32 0 74 54 91 117 9 32 24 69 33 81 42 60 129 80 178 41z m2426 1 c12 -8 12
-14 -3 -45 -9 -20 -17 -40 -17 -45 0 -8 90 -60 104 -60 3 0 12 14 21 30 15 30
16 30 45 15 30 -15 30 -16 14 -46 -8 -17 -14 -32 -12 -33 5 -5 120 -56 124
-56 2 0 13 18 24 40 23 45 21 44 53 29 l25 -11 -35 -77 c-19 -42 -39 -80 -43
-85 -6 -6 -395 170 -418 189 -1 1 14 38 35 83 36 82 50 93 83 72z m16 -290
c144 -109 174 -144 174 -198 0 -106 -109 -166 -200 -111 -44 27 -268 198 -276
210 -6 10 35 67 49 68 4 1 72 -48 150 -109 143 -110 178 -126 196 -92 15 28
-3 48 -158 167 l-140 107 26 35 c14 18 30 32 34 31 4 -2 70 -50 145 -108z
m-2298 54 c33 -22 62 -74 62 -113 0 -49 -30 -87 -127 -161 -110 -84 -139 -99
-189 -100 -92 -1 -153 105 -109 190 18 35 204 178 254 197 39 14 74 10 109
-13z m185 -218 c49 -20 87 -70 87 -115 0 -33 -44 -120 -69 -135 -3 -2 -21 9
-39 25 l-32 29 30 41 c34 47 37 61 15 79 -21 18 -51 -4 -131 -98 -89 -103
-105 -131 -93 -154 15 -28 38 -22 81 22 l40 40 33 -28 32 -29 -26 -31 c-33
-39 -89 -72 -122 -72 -38 0 -91 39 -113 84 -16 32 -17 44 -7 77 19 61 171 240
226 265 38 17 48 17 88 0z m1817 -17 c19 -12 44 -33 56 -47 l21 -25 -31 -28
-31 -27 -37 34 c-21 19 -42 34 -47 34 -10 0 -41 -28 -41 -36 0 -29 167 -233
197 -240 12 -3 27 -3 32 1 18 11 12 54 -11 85 -20 28 -23 29 -40 13 -17 -15
-19 -15 -38 2 -28 25 -23 37 34 83 l50 39 74 -89 c72 -87 73 -90 56 -109 -10
-11 -26 -18 -36 -16 -12 4 -20 -4 -28 -29 -6 -19 -21 -41 -33 -49 -32 -23 -97
-19 -134 8 -37 25 -162 176 -187 224 -34 67 -13 131 58 174 40 25 73 24 116
-2z m-1545 -158 c17 -9 38 -33 48 -53 15 -31 16 -43 7 -80 -12 -45 -35 -88
-48 -88 -4 0 -22 9 -40 20 l-32 20 20 37 c24 45 25 66 6 82 -27 22 -53 -6
-115 -123 -62 -114 -74 -159 -46 -170 25 -9 44 4 71 50 l26 44 39 -21 c36 -18
38 -22 28 -42 -61 -119 -158 -146 -234 -66 -46 47 -41 99 23 225 92 184 147
220 247 165z m1433 -258 l82 -102 -39 -21 -40 -20 -30 37 c-28 34 -32 36 -57
25 -21 -10 -25 -17 -20 -35 21 -72 20 -75 -18 -93 -20 -10 -38 -15 -41 -13 -2
3 -29 95 -59 205 -29 110 -57 210 -60 222 -6 17 0 24 30 40 l37 19 66 -81 c37
-45 104 -127 149 -183z m-1208 164 c71 -22 75 -25 73 -51 -3 -39 -6 -40 -56
-23 l-44 15 -17 -52 c-21 -70 -21 -73 15 -81 21 -5 29 -11 25 -22 -3 -8 -6
-21 -6 -30 0 -12 -8 -13 -38 -8 l-38 6 -17 -54 c-24 -77 -23 -83 27 -97 43
-12 44 -13 34 -41 -5 -16 -13 -29 -16 -29 -19 0 -172 52 -172 58 0 7 75 252
121 400 6 17 16 32 22 32 7 0 46 -11 87 -23z m850 6 c0 -5 3 -17 6 -29 5 -18
-1 -23 -41 -34 -34 -9 -45 -17 -40 -28 3 -8 10 -34 16 -58 l11 -44 39 6 c31 5
39 3 39 -9 0 -8 3 -22 6 -30 4 -11 -4 -17 -25 -22 -36 -8 -36 -7 -14 -86 16
-59 17 -60 47 -53 57 13 69 10 76 -17 7 -26 6 -27 -82 -54 -49 -14 -91 -25
-92 -23 -6 7 -126 419 -126 431 0 22 180 71 180 50z m-655 -58 c90 -12 125
-47 125 -126 0 -48 -13 -76 -47 -105 l-26 -22 18 -98 c10 -55 20 -105 22 -112
4 -8 -5 -12 -27 -12 -56 0 -66 12 -74 87 -10 101 -18 143 -26 143 -4 0 -13
-47 -20 -105 l-12 -105 -31 0 c-61 0 -61 -4 -31 244 l27 227 26 -5 c14 -3 49
-8 76 -11z m397 -196 c15 -107 27 -195 28 -196 0 -2 20 0 44 3 41 6 43 5 49
-22 3 -16 4 -30 2 -32 -6 -6 -146 -23 -163 -20 -13 3 -21 39 -43 198 -37 261
-37 258 4 263 17 2 37 3 42 2 6 -1 22 -89 37 -196z"/>
<path d="M1940 3460 c0 -160 1 -170 19 -170 10 0 23 6 29 13 6 6 12 78 14 160
3 156 0 166 -44 167 -16 0 -18 -15 -18 -170z"/>
<path d="M2883 3190 c-43 -55 -82 -111 -87 -124 -13 -33 -1 -56 28 -56 35 0
199 210 194 249 -2 20 -9 27 -30 29 -23 3 -36 -9 -105 -98z"/>
<path d="M681 3057 c-15 -19 80 -102 98 -84 18 18 13 39 -16 69 -29 30 -64 36
-82 15z"/>
<path d="M1866 3039 c-490 -52 -842 -382 -952 -894 -22 -106 -23 -323 0 -423
46 -208 134 -369 286 -523 191 -192 396 -290 675 -320 225 -25 462 38 685 182
217 140 388 377 457 634 23 89 26 118 26 260 0 141 -3 172 -26 258 -124 464
-470 777 -910 826 -106 12 -126 12 -241 0z m172 -69 c51 -37 122 -125 122
-152 0 -10 -5 -29 -11 -41 -21 -39 -189 -245 -205 -251 -21 -8 -277 -6 -334 2
-43 7 -48 11 -122 110 -99 131 -100 143 -17 212 67 56 108 79 189 105 93 31
161 43 251 44 80 1 89 -1 127 -29z m332 -251 c52 -27 111 -62 132 -79 59 -49
188 -322 188 -399 0 -31 -10 -45 -118 -173 -42 -50 -82 -88 -92 -88 -19 0
-121 42 -269 111 l-90 41 -34 82 c-19 44 -49 120 -67 168 -33 86 -33 87 -17
130 23 59 170 244 204 256 36 13 49 9 163 -49z m352 -47 c156 -166 263 -397
275 -594 8 -127 -3 -127 -129 -2 -112 111 -114 115 -134 190 -23 89 -71 204
-120 288 -31 53 -44 85 -40 100 10 39 45 86 65 86 10 0 47 -30 83 -68z m-1346
50 c22 -15 153 -198 159 -223 7 -28 -78 -381 -100 -415 -8 -12 -31 -32 -52
-45 -21 -12 -86 -54 -145 -92 -80 -51 -114 -68 -130 -63 -25 6 -133 159 -145
204 -17 70 62 321 137 435 92 140 224 235 276 199z m881 -698 c197 -84 222
-100 245 -150 29 -68 62 -234 54 -277 -5 -29 -27 -55 -109 -132 -131 -125
-174 -150 -249 -149 -77 1 -222 55 -264 98 -33 35 -67 148 -99 335 l-16 94 23
24 c31 34 164 144 212 177 21 14 51 26 67 26 15 0 77 -21 136 -46z m-663 -53
c156 -98 165 -105 180 -136 8 -16 31 -115 53 -218 l38 -189 -40 -34 c-58 -48
-152 -102 -213 -121 -53 -17 -54 -17 -95 5 -82 44 -301 197 -319 222 -18 26
-67 280 -60 312 2 10 74 65 160 123 125 84 162 105 181 100 13 -3 65 -32 115
-64z m1406 -107 c0 -109 -24 -204 -86 -334 -41 -86 -57 -111 -64 -100 -16 25
-12 43 39 171 46 115 81 245 81 302 0 13 3 27 7 30 17 18 23 1 23 -69z m-280
-347 l85 -22 9 -56 c8 -49 6 -63 -13 -102 -49 -101 -284 -287 -410 -324 -45
-13 -63 -13 -107 -4 -75 17 -79 24 -59 123 10 45 21 92 25 104 5 12 50 57 102
100 51 43 117 100 145 126 48 45 102 77 128 77 6 0 48 -10 95 -22z m-1441
-131 c64 -40 148 -90 186 -111 104 -57 265 -220 265 -269 0 -9 -12 -21 -27
-27 -23 -8 -43 -5 -108 16 -193 63 -411 233 -485 379 -28 56 -31 69 -19 77 34
21 74 8 188 -65z m911 -397 c27 -6 50 -15 50 -20 0 -4 -33 -19 -72 -31 -86
-26 -263 -31 -338 -9 -43 13 -44 14 -20 23 100 39 285 57 380 37z"/>
<path d="M492 2798 c-7 -7 -12 -22 -12 -35 0 -18 23 -36 120 -93 122 -72 153
-81 174 -48 15 25 -11 48 -128 117 -117 68 -137 76 -154 59z"/>
<path d="M738 1081 c-115 -87 -132 -106 -117 -134 18 -31 51 -18 166 69 101
75 114 88 111 112 -6 52 -43 41 -160 -47z"/>
<path d="M2647 615 c23 -70 42 -91 58 -65 6 9 -70 140 -80 140 -2 0 8 -34 22
-75z"/>
<path d="M1770 591 c0 -16 -3 -42 -6 -60 -5 -24 -3 -32 11 -38 39 -14 75 83
43 115 -23 23 -48 14 -48 -17z"/>
</g>
</svg>
